<svg xmlns="http://www.w3.org/2000/svg" viewBox="0 0 512 512" width="512" height="512">
  <!-- White rounded background -->
  <rect width="512" height="512" rx="96" fill="#ffffff"/>
  <!-- Centered original icon (309x314, scaled 1.2x, centered) -->
  <g transform="translate(71, 68) scale(1.2)">
<path d="M0 0 C0.47308594 0.38671875 0.94617188 0.7734375 1.43359375 1.171875 C2.09488281 1.69265625 2.75617187 2.2134375 3.4375 2.75 C4.07558594 3.26046875 4.71367187 3.7709375 5.37109375 4.296875 C12.50726242 8.92000953 18.6533255 10.59103205 27.11286926 10.49879456 C28.09214486 10.50417911 29.07142046 10.50956366 30.08037108 10.51511139 C33.34135644 10.52831968 36.60158058 10.51327072 39.86254883 10.49829102 C42.20891158 10.50211643 44.555272 10.50773737 46.90162659 10.51501465 C51.94508889 10.52694978 56.98834293 10.52648755 62.03180885 10.51642036 C69.33670574 10.50215627 76.64143866 10.51143342 83.94631716 10.52793955 C95.81716263 10.55436722 107.68796459 10.56526078 119.55883789 10.56420898 C120.2683482 10.56415066 120.9778585 10.56409234 121.70886912 10.56403225 C124.58325993 10.56376643 127.45765073 10.56344916 130.33204152 10.56306899 C138.23804455 10.56210327 146.14404625 10.56343006 154.05004883 10.56616211 C155.11164321 10.56652195 155.11164321 10.56652195 156.19468395 10.56688906 C168.01949791 10.57130442 179.84427163 10.58757255 191.66906184 10.6113829 C199.59630947 10.62665314 207.52339762 10.62606661 215.45065081 10.61390507 C220.39079569 10.60918236 225.33086865 10.61673231 230.27100182 10.62744904 C232.55418832 10.62984789 234.83738703 10.62714572 237.12055969 10.61884117 C254.48301988 10.55948812 269.21201337 10.77041524 282.58984375 23.30078125 C290.87511069 32.57974309 291.99323607 43.03010214 292 55 C292.00692871 56.07330566 292.01385742 57.14661133 292.02099609 58.25244141 C292.06795302 65.8354632 292.05642055 73.41707764 292 81 C289.17241877 81.80822128 286.70601407 82.10996364 283.76953125 82.0625 C282.96580078 82.05476563 282.16207031 82.04703125 281.33398438 82.0390625 C279.67252133 82.01332334 278.01106283 81.98728886 276.34960938 81.9609375 C266.81893326 81.34207234 266.81893326 81.34207234 258.26489258 84.3515625 C256.32945908 86.87386456 256.67300163 88.92621534 257 92 C259.79212511 94.79212511 262.45304289 94.35138075 266.1953125 94.4140625 C266.90275604 94.43342865 267.61019958 94.4527948 268.33908081 94.4727478 C270.60093085 94.53257652 272.8628317 94.57894101 275.125 94.625 C276.6575744 94.66317686 278.19012728 94.70222842 279.72265625 94.7421875 C283.48159624 94.83828039 287.24063668 94.92229849 291 95 C292.82399779 100.76990082 292.22500037 107.06577076 292.24023438 113.05908203 C292.24982183 115.3327462 292.28080742 117.60545862 292.3125 119.87890625 C292.41802775 134.25394516 291.05439197 148.66627508 281.25390625 160.0234375 C267.09330892 173.50691687 249.73765138 173.29903636 231.48071289 173.25878906 C229.40991595 173.26150262 227.33911997 173.2650656 225.26832581 173.26940918 C219.66915222 173.27849254 214.0700527 173.27500552 208.47087789 173.26865101 C202.5961788 173.26356932 196.72148584 173.26828854 190.8467865 173.27142334 C180.98223742 173.27505695 171.11771834 173.27028005 161.25317383 173.26074219 C149.86912444 173.24986184 138.48514672 173.25338263 127.10109907 173.264395 C117.30628475 173.2734887 107.51149193 173.27474288 97.71667475 173.26951766 C91.87579737 173.26640902 86.03495362 173.26595805 80.19407845 173.27259064 C74.70040873 173.2783937 69.20683086 173.27431323 63.71317101 173.26280212 C61.70411964 173.2601712 59.69506046 173.26089363 57.68601227 173.26532745 C41.23681592 173.29826576 26.37354171 172.99890628 12.625 162.6875 C9.14212159 159.12169592 6.57294714 155.2526159 4 151 C3.4225 150.0925 2.845 149.185 2.25 148.25 C-1.32029258 138.96723929 -1.2911705 128.65923271 -1.24291992 118.83764648 C-1.24576744 116.97175117 -1.24576744 116.97175117 -1.24867249 115.06816101 C-1.25171317 111.70090697 -1.24594747 108.33390506 -1.23571944 104.96668124 C-1.22684925 101.42652496 -1.22869801 97.8863718 -1.2290802 94.34620667 C-1.22814845 88.41461961 -1.21952538 82.48308423 -1.20581055 76.55151367 C-1.19002488 69.69907576 -1.18481496 62.84669405 -1.1855461 55.99423927 C-1.1862214 48.67558247 -1.17928902 41.35694723 -1.1700995 34.03829694 C-1.16797093 31.93574711 -1.16725874 29.83320076 -1.16686058 27.73064995 C-1.16566951 23.81968069 -1.15595885 19.9087581 -1.14526367 15.99780273 C-1.14571686 14.83571289 -1.14617004 13.67362305 -1.14663696 12.47631836 C-1.14237198 11.41259506 -1.13810699 10.34887177 -1.13371277 9.25291443 C-1.13203692 8.32957023 -1.13036108 7.40622602 -1.12863445 6.4549017 C-1.00849307 4.16208455 -0.64597515 2.19645586 0 0 Z M201.5 71.5 C198.42993881 74.59660351 195.35660323 77.68990323 192.28125 80.78125 C191.57923462 81.49156372 190.87721924 82.20187744 190.15393066 82.93371582 C189.50565308 83.58529663 188.85737549 84.23687744 188.18945312 84.90820312 C187.62005005 85.48284302 187.05064697 86.05748291 186.46398926 86.64953613 C185 88 185 88 183 89 C183 89.66 183 90.32 183 91 C182.34 91 181.68 91 181 91 C179.33333333 92.33333333 179.33333333 92.33333333 178 94 C178 94.66 178 95.32 178 96 C177.34 96 176.68 96 176 96 C174.37485532 97.45833358 174.37485532 97.45833358 173 99 C169.75562977 95.7620898 166.52728889 92.50944919 163.3125 89.2421875 C161.54180269 87.45299037 159.77096543 85.66393174 158 83.875 C157.11054688 82.96878906 156.22109375 82.06257813 155.3046875 81.12890625 C154.44101563 80.25878906 153.57734375 79.38867188 152.6875 78.4921875 C151.90761719 77.70183105 151.12773437 76.91147461 150.32421875 76.09716797 C146.21345204 72.38797826 142.57451172 70.3344707 137 70 C131.24047018 70.82278997 128.68149464 72.89162562 125.1640625 77.24609375 C122.63944256 81.04996742 122.6992188 84.56347728 123 89 C125.32151577 95.50084638 130.38675858 99.782675 135.19140625 104.51953125 C136.0924559 105.41870773 136.99350555 106.31788422 137.92185974 107.24430847 C139.82235193 109.13809201 141.72533313 111.02884305 143.63354492 112.91479492 C146.08062114 115.33346904 148.51882442 117.76084848 150.95396519 120.19153309 C153.27995631 122.51237582 155.61062014 124.82850545 157.94140625 127.14453125 C158.81849747 128.01737259 159.69558868 128.89021393 160.59925842 129.789505 C161.41027512 130.59091415 162.22129181 131.3923233 163.05688477 132.21801758 C164.1291909 133.28008171 164.1291909 133.28008171 165.22315979 134.36360168 C167.62447799 136.5751191 168.84951141 136.97592183 172.125 137.5 C177.71011373 136.77934016 180.08245932 133.83048422 184 130 C185.53718327 128.66150028 187.07890162 127.32819189 188.625 126 C191.96094654 123.04235667 194.85279008 119.9534477 197.67578125 116.51171875 C199 115 199 115 201.4375 113.0625 C203.68280004 111.25530729 205.31194918 109.55546982 207.16357422 107.3737793 C210.9124483 103.04444501 214.88209472 98.98993887 218.9453125 94.95703125 C219.67821503 94.22554367 220.41111755 93.49405609 221.16622925 92.74040222 C223.48345622 90.42871634 225.80414855 88.12054642 228.125 85.8125 C229.68903526 84.2534891 231.25283936 82.69424626 232.81640625 81.13476562 C235.68363253 78.27566326 238.55216232 75.41788363 241.42236328 72.56176758 C242.03815247 71.94838531 242.65394165 71.33500305 243.28839111 70.70303345 C244.36513975 69.63167949 245.44334161 68.56178213 246.52362061 67.49398804 C250.66905496 63.38538315 253.14744453 60.47580442 253.375 54.5 C253.20516325 49.63134646 251.64059818 46.91403121 248.5 43.25 C245.20365937 40.50304948 241.33707296 40.65567544 237.2578125 40.734375 C224.8529162 42.19377456 209.89683884 63.02922673 201.5 71.5 Z " fill="#44A25C" transform="translate(10,134)"/>
<path d="M0 0 C2.9576473 2.29217666 3.81597278 3.44791835 5 7 C5.08481773 9.58630224 5.11598229 12.14478056 5.09765625 14.73046875 C5.09553383 15.85609978 5.09553383 15.85609978 5.09336853 17.00447083 C5.0877756 19.3988546 5.07522444 21.79314453 5.0625 24.1875 C5.05748408 25.81184761 5.05292134 27.43619668 5.04882812 29.06054688 C5.03780848 33.04040069 5.02054873 37.02018444 5 41 C-2.35591541 41.89697041 -9.59012309 42.13339568 -16.99560547 42.09765625 C-18.15131546 42.09619598 -19.30702545 42.09473572 -20.49775696 42.0932312 C-22.98962715 42.0894455 -25.48149471 42.08335065 -27.97335434 42.07516479 C-31.91543873 42.06234306 -35.85748929 42.05587134 -39.79959106 42.05102539 C-48.15807604 42.03997852 -56.51653345 42.02041242 -64.875 42 C-74.58340378 41.97633358 -84.29179154 41.95602973 -94.00021744 41.94406128 C-97.8867937 41.93757162 -101.77332142 41.92506778 -105.65988159 41.91235352 C-108.03350787 41.90872231 -110.40713459 41.90537042 -112.78076172 41.90234375 C-113.86340805 41.89717743 -114.94605438 41.89201111 -116.06150818 41.88668823 C-117.05383957 41.88661774 -118.04617096 41.88654724 -119.068573 41.88647461 C-119.92944456 41.884254 -120.79031612 41.88203339 -121.6772747 41.87974548 C-123.99311014 41.91981916 -123.99311014 41.91981916 -126.13633919 42.56568909 C-128.84971492 43.19801911 -130.54628621 42.15869818 -133 41 C-131.54921549 38.09843099 -129.79534803 38.0402512 -126.75390625 37.00390625 C-125.62412354 36.61589844 -124.49434082 36.22789062 -123.33032227 35.828125 C-122.08694092 35.41046875 -120.84355957 34.9928125 -119.5625 34.5625 C-118.2576154 34.11882978 -116.95284878 33.67481244 -115.64819336 33.23046875 C-104.38292303 29.40880174 -93.06435808 25.75033203 -81.73950195 22.10986328 C-72.39173201 19.10444244 -63.06360169 16.04734359 -53.75 12.9375 C-52.54327637 12.53756836 -51.33655273 12.13763672 -50.09326172 11.72558594 C-44.32801643 9.80923351 -38.57746411 7.86229204 -32.85525513 5.82130432 C-30.12740542 4.85079814 -27.3938014 3.89714049 -24.6595459 2.94485474 C-23.36383168 2.48830696 -22.07096143 2.02359037 -20.78137207 1.55001831 C-13.50442437 -1.12045974 -7.39817758 -3.31577704 0 0 Z " fill="#3B9F5D" transform="translate(262,94)"/>
<path d="M0 0 C1.77206192 0.00015919 3.54412846 0.00585754 5.31616211 0.01586914 C6.24698105 0.01728409 7.17779999 0.01869904 8.13682556 0.02015686 C11.12241777 0.02577367 14.10793615 0.03832899 17.09350586 0.05102539 C19.11238499 0.05603823 21.13126529 0.06060151 23.15014648 0.06469727 C28.11046158 0.07574856 33.07072118 0.09302444 38.03100586 0.11352539 C38.89684265 6.80353767 39.16491524 13.31365246 39.12866211 20.05493164 C39.12724716 21.06321518 39.12583221 22.07149872 39.12437439 23.1103363 C39.11882191 26.29893081 39.10627847 29.48745247 39.09350586 32.67602539 C39.08848471 34.85115458 39.08392288 37.02628488 39.07983398 39.20141602 C39.06886809 44.5054769 39.052178 49.80949594 39.03100586 55.11352539 C34.34982807 57.60507534 29.6569277 59.37983983 24.64038086 61.03149414 C23.85455627 61.29360184 23.06873169 61.55570953 22.25909424 61.82575989 C20.60923904 62.37493559 18.95865094 62.92191392 17.30737305 63.46679688 C14.77320611 64.30360094 12.24183097 65.14846741 9.71069336 65.99438477 C8.10408091 66.52806492 6.49731537 67.06128449 4.89038086 67.59399414 C4.1320697 67.84706833 3.37375854 68.10014252 2.59246826 68.36088562 C-2.73790834 70.11352539 -2.73790834 70.11352539 -4.96899414 70.11352539 C-4.9921198 61.13431762 -5.00991037 52.15512002 -5.02080631 43.17588902 C-5.02603465 39.00689711 -5.03313141 34.83792552 -5.04443359 30.66894531 C-5.05526422 26.64894853 -5.06127135 22.62897134 -5.06387138 18.60896111 C-5.06572532 17.07189564 -5.06934533 15.5348313 -5.0747242 13.99777412 C-5.08193698 11.85217052 -5.08298499 9.70664884 -5.08251953 7.56103516 C-5.08474014 6.33747818 -5.08696075 5.1139212 -5.08924866 3.85328674 C-4.89964344 -0.46649325 -4.54946255 0.13012857 0 0 Z " fill="#FDBC13" transform="translate(171.968994140625,39.886474609375)"/>
<path d="M0 0 C11.88 0 23.76 0 36 0 C36 21.78 36 43.56 36 66 C28.53796919 68.98481232 21.17046596 71.72181439 13.5625 74.25 C12.48806641 74.61351563 11.41363281 74.97703125 10.30664062 75.3515625 C9.27861328 75.69445312 8.25058594 76.03734375 7.19140625 76.390625 C6.26529541 76.70032227 5.33918457 77.01001953 4.38500977 77.32910156 C2 78 2 78 -1 78 C-1.02315232 68.2730316 -1.04092987 58.54606973 -1.05181217 48.8190794 C-1.05703465 44.30263484 -1.06412084 39.78620911 -1.07543945 35.26977539 C-1.08629081 30.91260912 -1.09228163 26.55546098 -1.09487724 22.19828224 C-1.09672742 20.53448005 -1.10034027 18.87067887 -1.10573006 17.20688438 C-1.11297029 14.87968157 -1.11398967 12.55255403 -1.11352539 10.2253418 C-1.11712067 9.53482224 -1.12071594 8.84430267 -1.12442017 8.13285828 C-1.11792756 5.13284506 -0.95763658 2.87290974 0 0 Z " fill="#FEC012" transform="translate(225,13)"/>
<path d="M0 0 C1.18298172 0.00068733 1.18298172 0.00068733 2.38986206 0.00138855 C4.05240387 0.0044032 5.71494305 0.01226591 7.37744141 0.0246582 C9.92751008 0.04295313 12.47721618 0.0451675 15.02734375 0.04492188 C16.64323232 0.04983598 18.25911842 0.05566382 19.875 0.0625 C20.63958527 0.06361282 21.40417053 0.06472565 22.19192505 0.06587219 C27.57250735 0.11437867 27.57250735 0.11437867 29.8046875 1.23046875 C29.8046875 18.72046875 29.8046875 36.21046875 29.8046875 54.23046875 C8.8046875 61.23046875 8.8046875 61.23046875 -12.1953125 68.23046875 C-12.92363535 46.18260022 -13.54959947 24.26757377 -12.1953125 2.23046875 C-8.3658105 -0.30640352 -4.42087577 -0.04176823 0 0 Z " fill="#FDBB14" transform="translate(125.1953125,60.76953125)"/>
<path d="M0 0 C13.53 0 27.06 0 41 0 C42.15732169 2.31464338 42.12672725 3.6431745 42.12939453 6.21850586 C42.13254669 7.08958481 42.13569885 7.96066376 42.13894653 8.85813904 C42.1369223 9.80085159 42.13489807 10.74356415 42.1328125 11.71484375 C42.13376923 12.68152481 42.13472595 13.64820587 42.13571167 14.6441803 C42.13639296 16.69109156 42.13454223 18.73800498 42.13037109 20.78491211 C42.12502792 23.92111057 42.13031484 27.05716543 42.13671875 30.19335938 C42.13605785 32.17968782 42.13477643 34.16601617 42.1328125 36.15234375 C42.13483673 37.09303207 42.13686096 38.0337204 42.13894653 39.00291443 C42.13421829 40.31426109 42.13421829 40.31426109 42.12939453 41.65209961 C42.12859894 42.42106064 42.12780334 43.19002167 42.12698364 43.98228455 C42 46 42 46 41 49 C32.67215887 52.99178083 23.94774815 52.34060778 14.9375 52.1875 C13.38868489 52.17242519 11.83985559 52.15874173 10.29101562 52.14648438 C6.52698822 52.11370138 2.76365362 52.06207498 -1 52 C-1.19390963 45.39838411 -1.37124225 38.79647139 -1.53710938 32.1940918 C-1.59547312 29.94854681 -1.65761763 27.70309675 -1.72363281 25.45776367 C-1.81791705 22.22852869 -1.89855622 18.99919541 -1.9765625 15.76953125 C-2.00875885 14.76727005 -2.0409552 13.76500885 -2.0741272 12.7323761 C-2.09429901 11.79177841 -2.11447083 10.85118073 -2.13525391 9.88208008 C-2.15746002 9.05823318 -2.17966614 8.23438629 -2.20254517 7.38557434 C-2 5 -2 5 0 0 Z " fill="#FDB915" transform="translate(57,84)"/>
<path d="M0 0 C0.33 0 0.66 0 1 0 C1.01458252 1.04752441 1.02916504 2.09504883 1.04418945 3.17431641 C1.1029719 7.12954761 1.18018458 11.08425594 1.26245117 15.0390625 C1.29533025 16.73786822 1.32347205 18.4367735 1.34643555 20.13574219 C1.56964689 36.2259556 1.91640414 51.12219181 14.10546875 63.0625 C22.07558573 69.83357283 30.80252442 71.37079406 41 72 C41 72.33 41 72.66 41 73 C68.80792302 73.1403186 96.61579278 73.24604399 124.42399883 73.31087303 C137.33657878 73.34177776 150.24893843 73.38389397 163.16137695 73.45263672 C174.41917425 73.51254185 185.67681195 73.55117371 196.93476421 73.56453097 C202.89283913 73.5723358 208.85045758 73.59060902 214.80838585 73.63438034 C220.42352278 73.67529658 226.03801794 73.68763053 231.65328979 73.67864609 C233.7071005 73.68028823 235.76093407 73.69210905 237.81461525 73.71523285 C248.54266857 73.83003808 256.98843245 73.70228609 266.51136494 68.28855324 C269 67 269 67 273 67 C273.33 66.34 273.66 65.68 274 65 C275.1050063 64.05932797 276.23341488 63.14592756 277.375 62.25 C280.63384518 59.5331804 282.38899348 56.98013375 284 53 C284.66 53 285.32 53 286 53 C286.13277344 52.11957031 286.26554687 51.23914063 286.40234375 50.33203125 C286.57894531 49.17058594 286.75554687 48.00914062 286.9375 46.8125 C287.19853516 45.08966797 287.19853516 45.08966797 287.46484375 43.33203125 C287.76243056 41.47917322 288.08684155 39.62819928 288.51367188 37.80078125 C289.146296 34.15747603 289.23310281 30.54288192 289.31640625 26.85546875 C289.3475779 25.7007885 289.3475779 25.7007885 289.37937927 24.52278137 C289.44446049 22.07777333 289.50356591 19.63266317 289.5625 17.1875 C289.60572468 15.52407823 289.64934021 13.86066656 289.69335938 12.19726562 C289.80009907 8.13161352 289.90148171 4.06585929 290 0 C292.42698804 2.42698804 292.25381398 3.73658206 292.30354309 7.05133057 C292.30217598 8.08553131 292.30217598 8.08553131 292.30078125 9.140625 C292.30506638 9.8592572 292.3093515 10.5778894 292.31376648 11.31829834 C292.31952061 12.84825591 292.3200021 14.37824085 292.31567383 15.90820312 C292.31256813 18.19972784 292.33576378 20.48989038 292.36132812 22.78125 C292.42475491 37.17580818 291.06576849 51.65309155 281.25390625 63.0234375 C267.09330892 76.50691687 249.73765138 76.29903636 231.48071289 76.25878906 C229.40991595 76.26150262 227.33911997 76.2650656 225.26832581 76.26940918 C219.66915222 76.27849254 214.0700527 76.27500552 208.47087789 76.26865101 C202.5961788 76.26356932 196.72148584 76.26828854 190.8467865 76.27142334 C180.98223742 76.27505695 171.11771834 76.27028005 161.25317383 76.26074219 C149.86912444 76.24986184 138.48514672 76.25338263 127.10109907 76.264395 C117.30628475 76.2734887 107.51149193 76.27474288 97.71667475 76.26951766 C91.87579737 76.26640902 86.03495362 76.26595805 80.19407845 76.27259064 C74.70040873 76.2783937 69.20683086 76.27431323 63.71317101 76.26280212 C61.70411964 76.2601712 59.69506046 76.26089363 57.68601227 76.26532745 C41.23681592 76.29826576 26.37354171 75.99890628 12.625 65.6875 C9.14212159 62.12169592 6.57294714 58.2526159 4 54 C3.4225 53.0925 2.845 52.185 2.25 51.25 C-1.43083959 41.67981705 -1.29917641 31.12033656 -1.20581055 20.99438477 C-1.18723957 18.90824456 -1.18530387 16.82254346 -1.18554688 14.73632812 C-1.14514237 3.69701075 -1.14514237 3.69701075 0 0 Z " fill="#216C43" transform="translate(10,231)"/>
<path d="M0 0 C0.99 0.33 1.98 0.66 3 1 C4.25483382 4.15016513 4.12903205 7.36387358 4.1328125 10.71875 C4.13474609 12.36423828 4.13474609 12.36423828 4.13671875 14.04296875 C4.13285156 15.18378906 4.12898438 16.32460937 4.125 17.5 C4.13080078 19.21123047 4.13080078 19.21123047 4.13671875 20.95703125 C4.13542969 22.05402344 4.13414063 23.15101562 4.1328125 24.28125 C4.13168457 25.28220703 4.13055664 26.28316406 4.12939453 27.31445312 C4.01419427 29.70540194 3.68375146 31.71584914 3 34 C-0.35349327 34.17576433 -3.70578979 34.28132437 -7.0625 34.375 C-8.00544922 34.42527344 -8.94839844 34.47554687 -9.91992188 34.52734375 C-15.96972384 34.65382045 -19.30610507 33.87294618 -23.75561523 29.68994141 C-25.23286414 27.68375797 -25.88103202 26.50427593 -26 24 C-24.58813477 21.98876953 -24.58813477 21.98876953 -22.44140625 19.8828125 C-21.66216797 19.11066406 -20.88292969 18.33851562 -20.08007812 17.54296875 C-19.24927734 16.74503906 -18.41847656 15.94710937 -17.5625 15.125 C-16.76650391 14.33480469 -15.97050781 13.54460937 -15.15039062 12.73046875 C-4.63184204 2.42623453 -4.63184204 2.42623453 0 0 Z " fill="#43A55E" transform="translate(42,101)"/>
<path d="M0 0 C2.9576473 2.29217666 3.81597278 3.44791835 5 7 C5.08481773 9.58630224 5.11598229 12.14478056 5.09765625 14.73046875 C5.09553383 15.85609978 5.09553383 15.85609978 5.09336853 17.00447083 C5.0877756 19.3988546 5.07522444 21.79314453 5.0625 24.1875 C5.05748408 25.81184761 5.05292134 27.43619668 5.04882812 29.06054688 C5.03780848 33.04040069 5.02054873 37.02018444 5 41 C-2.35591541 41.89697041 -9.59012309 42.13339568 -16.99560547 42.09765625 C-18.15131546 42.09619598 -19.30702545 42.09473572 -20.49775696 42.0932312 C-22.98962715 42.0894455 -25.48149471 42.08335065 -27.97335434 42.07516479 C-31.91543873 42.06234306 -35.85748929 42.05587134 -39.79959106 42.05102539 C-48.15807604 42.03997852 -56.51653345 42.02041242 -64.875 42 C-74.58340378 41.97633358 -84.29179154 41.95602973 -94.00021744 41.94406128 C-97.8867937 41.93757162 -101.77332142 41.92506778 -105.65988159 41.91235352 C-108.03350787 41.90872231 -110.40713459 41.90537042 -112.78076172 41.90234375 C-113.86340805 41.89717743 -114.94605438 41.89201111 -116.06150818 41.88668823 C-117.05383957 41.88661774 -118.04617096 41.88654724 -119.068573 41.88647461 C-119.92944456 41.884254 -120.79031612 41.88203339 -121.6772747 41.87974548 C-123.99311014 41.91981916 -123.99311014 41.91981916 -126.13633919 42.56568909 C-128.84971492 43.19801911 -130.54628621 42.15869818 -133 41 C-131.54921549 38.09843099 -129.79534803 38.0402512 -126.75390625 37.00390625 C-125.62412354 36.61589844 -124.49434082 36.22789062 -123.33032227 35.828125 C-122.08694092 35.41046875 -120.84355957 34.9928125 -119.5625 34.5625 C-118.2576154 34.11882978 -116.95284878 33.67481244 -115.64819336 33.23046875 C-104.38292303 29.40880174 -93.06435808 25.75033203 -81.73950195 22.10986328 C-72.39173201 19.10444244 -63.06360169 16.04734359 -53.75 12.9375 C-52.54327637 12.53756836 -51.33655273 12.13763672 -50.09326172 11.72558594 C-44.32801643 9.80923351 -38.57746411 7.86229204 -32.85525513 5.82130432 C-30.12740542 4.85079814 -27.3938014 3.89714049 -24.6595459 2.94485474 C-23.36383168 2.48830696 -22.07096143 2.02359037 -20.78137207 1.55001831 C-13.50442437 -1.12045974 -7.39817758 -3.31577704 0 0 Z M-18.875 2.875 C-20.65670906 3.53742814 -22.43930934 4.19746267 -24.22265625 4.85546875 C-25.16383301 5.20786621 -26.10500977 5.56026367 -27.07470703 5.92333984 C-32.11961685 7.78012939 -37.21317373 9.48695736 -42.3125 11.1875 C-43.40860596 11.55431885 -44.50471191 11.9211377 -45.6340332 12.29907227 C-57.89632075 16.36202753 -70.25635848 20.11171475 -82.62426758 23.83862305 C-89.84891541 26.02581102 -96.98302173 28.21711078 -103.94897461 31.14868164 C-108.23876333 32.92924268 -112.68735 34.29308886 -117.09375 35.75390625 C-120.2599604 36.7982977 -120.2599604 36.7982977 -122 40 C-80.75 40 -39.5 40 3 40 C6.5399386 9.35773588 6.5399386 9.35773588 -1 1 C-7.14585924 -1.42580421 -13.04142462 0.55962745 -18.875 2.875 Z " fill="#368945" transform="translate(262,94)"/>
<path d="M0 0 C0.99 0.33 1.98 0.66 3 1 C-23 27 -23 27 -25.09912109 29.09472656 C-28.32234642 32.31780216 -31.53029099 35.55603081 -34.7406311 38.79193115 C-37.92169709 41.99616124 -41.10643761 45.19672085 -44.29242897 48.39605331 C-46.70801963 50.82213114 -49.12167966 53.25007046 -51.53125 55.68212891 C-54.32000014 58.49672314 -57.11679109 61.30324837 -59.9140625 64.109375 C-60.77971832 64.98535339 -61.64537415 65.86133179 -62.53726196 66.76385498 C-63.34174774 67.56849182 -64.14623352 68.37312866 -64.97509766 69.20214844 C-65.68171539 69.9132074 -66.38833313 70.62426636 -67.11636353 71.35687256 C-69.76865657 73.67051192 -71.83366437 73.98430796 -75.3125 74.3125 C-83.23862335 73.64079463 -88.44299735 66.86394962 -93.79296875 61.5078125 C-94.62081375 60.68425262 -95.44865875 59.86069275 -96.30158997 59.01217651 C-98.04466741 57.27482547 -99.78515248 55.53487008 -101.52319336 53.79248047 C-104.18020247 51.13230622 -106.85027006 48.48574433 -109.52148438 45.83984375 C-111.21695629 44.14664449 -112.91164462 42.45266015 -114.60546875 40.7578125 C-115.40236618 39.97012482 -116.19926361 39.18243713 -117.02030945 38.37088013 C-121.55118106 33.80193241 -125.51687082 29.79230429 -126.36328125 23.1484375 C-126.34652344 22.23320312 -126.32976562 21.31796875 -126.3125 20.375 C-126.30863281 19.45460937 -126.30476562 18.53421875 -126.30078125 17.5859375 C-125.99407941 14.94909827 -125.33784996 13.27061387 -124 11 C-123 14 -123 14 -124 17 C-124.40701266 22.39291778 -123.80855619 25.39842023 -121 30 C-118.15900609 33.2524664 -115.10214778 36.27047359 -112.02734375 39.30078125 C-111.14849014 40.17776169 -110.26963654 41.05474213 -109.364151 41.95829773 C-107.0375528 44.27647563 -104.70435221 46.58773655 -102.36810303 48.8961792 C-99.98785938 51.25266001 -97.61889334 53.62039406 -95.24804688 55.98632812 C-93.44593597 57.77927271 -91.64322236 59.57161175 -89.83984375 61.36328125 C-88.98462631 62.21424881 -88.12940887 63.06521637 -87.24827576 63.94197083 C-86.45727982 64.72335922 -85.66628387 65.50474762 -84.85131836 66.30981445 C-84.15421249 67.00009232 -83.45710663 67.69037018 -82.73887634 68.40156555 C-80.3604357 70.58790932 -79.11848415 70.98104254 -75.875 71.5 C-70.30067196 70.78073187 -67.90948665 67.81961339 -64 64 C-62.65133689 62.84769397 -61.2972264 61.70173023 -59.9375 60.5625 C-56.39952224 57.49206565 -53.40390087 54.12989712 -50.4453125 50.50390625 C-49.96835938 50.00761719 -49.49140625 49.51132813 -49 49 C-48.34 49 -47.68 49 -47 49 C-46.67 48.01 -46.34 47.02 -46 46 C-45.34 46 -44.68 46 -44 46 C-43.62180115 45.13480743 -43.62180115 45.13480743 -43.23596191 44.25213623 C-41.8440941 41.7159125 -40.26719104 40.01316506 -38.22460938 37.96582031 C-37.45040649 37.18531311 -36.67620361 36.40480591 -35.87854004 35.60064697 C-35.04205933 34.76821472 -34.20557861 33.93578247 -33.34375 33.078125 C-32.48567749 32.21813904 -31.62760498 31.35815308 -30.74353027 30.47210693 C-28.93027533 28.65749174 -27.11449519 26.84539684 -25.29638672 25.03564453 C-22.50385862 22.25384379 -19.72217542 19.46151855 -16.94140625 16.66796875 C-15.18032867 14.90821228 -13.41863106 13.14907605 -11.65625 11.390625 C-10.81976929 10.55009583 -9.98328857 9.70956665 -9.12145996 8.84356689 C-7.96015564 7.69171906 -7.96015564 7.69171906 -6.77539062 6.51660156 C-6.09303345 5.83583557 -5.41067627 5.15506958 -4.7076416 4.45367432 C-3 3 -3 3 -1 3 C-0.67 2.01 -0.34 1.02 0 0 Z " fill="#297E46" transform="translate(258,199)"/>
<path d="M0 0 C13.53 0 27.06 0 41 0 C42.15732169 2.31464338 42.12672725 3.6431745 42.12939453 6.21850586 C42.13254669 7.08958481 42.13569885 7.96066376 42.13894653 8.85813904 C42.1369223 9.80085159 42.13489807 10.74356415 42.1328125 11.71484375 C42.13376923 12.68152481 42.13472595 13.64820587 42.13571167 14.6441803 C42.13639296 16.69109156 42.13454223 18.73800498 42.13037109 20.78491211 C42.12502792 23.92111057 42.13031484 27.05716543 42.13671875 30.19335938 C42.13605785 32.17968782 42.13477643 34.16601617 42.1328125 36.15234375 C42.13483673 37.09303207 42.13686096 38.0337204 42.13894653 39.00291443 C42.13421829 40.31426109 42.13421829 40.31426109 42.12939453 41.65209961 C42.12859894 42.42106064 42.12780334 43.19002167 42.12698364 43.98228455 C42 46 42 46 41 49 C32.67215887 52.99178083 23.94774815 52.34060778 14.9375 52.1875 C13.38868489 52.17242519 11.83985559 52.15874173 10.29101562 52.14648438 C6.52698822 52.11370138 2.76365362 52.06207498 -1 52 C-1.19390963 45.39838411 -1.37124225 38.79647139 -1.53710938 32.1940918 C-1.59547312 29.94854681 -1.65761763 27.70309675 -1.72363281 25.45776367 C-1.81791705 22.22852869 -1.89855622 18.99919541 -1.9765625 15.76953125 C-2.00875885 14.76727005 -2.0409552 13.76500885 -2.0741272 12.7323761 C-2.09429901 11.79177841 -2.11447083 10.85118073 -2.13525391 9.88208008 C-2.15746002 9.05823318 -2.17966614 8.23438629 -2.20254517 7.38557434 C-2 5 -2 5 0 0 Z M1 2 C1 17.51 1 33.02 1 49 C3.96295806 49.98765269 5.91735552 50.12889841 9.0078125 50.1328125 C10.48894531 50.13474609 10.48894531 50.13474609 12 50.13671875 C13.03125 50.13285156 14.0625 50.12898438 15.125 50.125 C16.63707031 50.13080078 16.63707031 50.13080078 18.1796875 50.13671875 C24.19259034 50.12893002 30.05707831 49.96010391 36 49 C36.495 48.01 36.495 48.01 37 47 C37.99 46.67 38.98 46.34 40 46 C40 31.48 40 16.96 40 2 C27.13 2 14.26 2 1 2 Z " fill="#F1B217" transform="translate(57,84)"/>
<path d="M0 0 C11.88 0 23.76 0 36 0 C36 21.78 36 43.56 36 66 C28.53796919 68.98481232 21.17046596 71.72181439 13.5625 74.25 C12.48806641 74.61351563 11.41363281 74.97703125 10.30664062 75.3515625 C9.27861328 75.69445312 8.25058594 76.03734375 7.19140625 76.390625 C6.26529541 76.70032227 5.33918457 77.01001953 4.38500977 77.32910156 C2 78 2 78 -1 78 C-1.02517326 73.98389666 -1.04307755 69.96782537 -1.05493164 65.95166016 C-1.06229008 63.93260071 -1.07501162 61.91356303 -1.08789062 59.89453125 C-1.10929464 51.20450174 -0.74849894 42.65625944 0 34 C0.33 34 0.66 34 1 34 C1 47.53 1 61.06 1 75 C6.96284165 73.2111475 12.85868784 71.41991411 18.75 69.4375 C19.98234375 69.02371094 21.2146875 68.60992187 22.484375 68.18359375 C23.64453125 67.79300781 24.8046875 67.40242188 26 67 C27.09828125 66.72285156 28.1965625 66.44570312 29.328125 66.16015625 C32.15602187 65.26452843 32.15602187 65.26452843 33.15698242 62.79077148 C34.07497039 59.75181393 34.21330878 57.35732355 34.16015625 54.1875 C34.14855469 53.04240967 34.13695312 51.89731934 34.125 50.7175293 C34.104375 49.49074463 34.08375 48.26395996 34.0625 47 C33.92457309 31.96309305 34.40762838 17.03142985 35 2 C23.78 2 12.56 2 1 2 C1 6.62 1 11.24 1 16 C-1 14 -1 14 -1.23046875 11.50390625 C-1.21628906 10.53324219 -1.20210937 9.56257813 -1.1875 8.5625 C-1.18105469 7.59441406 -1.17460937 6.62632813 -1.16796875 5.62890625 C-1 3 -1 3 0 0 Z " fill="#FAB40F" transform="translate(225,13)"/>
<path d="M0 0 C2.11931075 3.17896613 2.2469603 3.92974532 2.22705078 7.56323242 C2.22689972 8.48396042 2.22674866 9.40468842 2.22659302 10.35331726 C2.21627045 11.34402725 2.20594788 12.33473724 2.1953125 13.35546875 C2.1924826 14.37224197 2.18965271 15.3890152 2.18673706 16.43659973 C2.17553383 19.68701908 2.15042886 22.93716381 2.125 26.1875 C2.11497039 28.38996998 2.10584451 30.59244428 2.09765625 32.79492188 C2.07559405 38.19670843 2.04211508 43.59833459 2 49 C-2.68117779 51.49154995 -7.37407816 53.26631444 -12.390625 54.91796875 C-13.17644958 55.18007645 -13.96227417 55.44218414 -14.77191162 55.7122345 C-16.42176682 56.2614102 -18.07235492 56.80838853 -19.72363281 57.35327148 C-22.25779975 58.19007555 -24.78917489 59.03494201 -27.3203125 59.88085938 C-28.92692495 60.41453953 -30.53369049 60.9477591 -32.140625 61.48046875 C-32.89893616 61.73354294 -33.65724731 61.98661713 -34.4385376 62.24736023 C-39.7689142 64 -39.7689142 64 -42 64 C-42 57.4 -42 50.8 -42 44 C-41.34 44.33 -40.68 44.66 -40 45 C-38.91437213 49.93467213 -39.09103396 54.05118487 -40 59 C-35.68778787 58.62173578 -32.50189656 58.21509852 -28.5 56.5 C-25.52567294 55.2252884 -23.73907985 54.7422587 -20.625 54.4375 C-19.42875 54.293125 -18.2325 54.14875 -17 54 C-16.67 53.34 -16.34 52.68 -16 52 C-14.07421875 51.40234375 -14.07421875 51.40234375 -11.6875 50.9375 C-10.90761719 50.78152344 -10.12773437 50.62554687 -9.32421875 50.46484375 C-8.55722656 50.31144531 -7.79023438 50.15804687 -7 50 C-6.30519531 49.81566406 -5.61039063 49.63132813 -4.89453125 49.44140625 C-3 49 -3 49 0 49 C0 32.83 0 16.66 0 0 Z " fill="#F6A312" transform="translate(209,46)"/>
<path d="M0 0 C2.42698804 2.42698804 2.25381398 3.73658206 2.30354309 7.05133057 C2.30263168 7.74079773 2.30172028 8.43026489 2.30078125 9.140625 C2.30506638 9.8592572 2.3093515 10.5778894 2.31376648 11.31829834 C2.31952061 12.84825591 2.3200021 14.37824085 2.31567383 15.90820312 C2.31256813 18.19972784 2.33576378 20.48989038 2.36132812 22.78125 C2.42475491 37.17580818 1.06576849 51.65309155 -8.74609375 63.0234375 C-15.46717159 69.42313324 -24.61639347 74.57347243 -34 75 C-34 74.34 -34 73.68 -34 73 C-31.921188 71.99063464 -29.8367638 70.99282154 -27.75 70 C-26.58984375 69.443125 -25.4296875 68.88625 -24.234375 68.3125 C-21 67 -21 67 -17 67 C-16.67 66.34 -16.34 65.68 -16 65 C-14.8949937 64.05932797 -13.76658512 63.14592756 -12.625 62.25 C-9.36615482 59.5331804 -7.61100652 56.98013375 -6 53 C-5.34 53 -4.68 53 -4 53 C-3.80083984 51.67935547 -3.80083984 51.67935547 -3.59765625 50.33203125 C-3.42105469 49.17058594 -3.24445313 48.00914062 -3.0625 46.8125 C-2.88847656 45.66394531 -2.71445312 44.51539063 -2.53515625 43.33203125 C-2.23756944 41.47917322 -1.91315845 39.62819928 -1.48632812 37.80078125 C-0.853704 34.15747603 -0.76689719 30.54288192 -0.68359375 26.85546875 C-0.66281265 26.08568192 -0.64203156 25.31589508 -0.62062073 24.52278137 C-0.55553951 22.07777333 -0.49643409 19.63266317 -0.4375 17.1875 C-0.39427532 15.52407823 -0.35065979 13.86066656 -0.30664062 12.19726562 C-0.19990093 8.13161352 -0.09851829 4.06585929 0 0 Z " fill="#25704A" transform="translate(300,231)"/>
<path d="M0 0 C4.34470054 2.51625797 7.94945549 5.5978431 11.625 9 C12.13063477 9.46768799 12.63626953 9.93537598 13.15722656 10.41723633 C18.92288877 15.79123848 24.47182405 21.38360847 30 27 C34.35210528 23.35844252 38.42889352 19.6433682 42.32421875 15.515625 C44.10442219 13.90555756 45.81526699 12.97099245 48 12 C46.55922954 15.36179774 44.75249979 17.59156268 42 20 C41.34 20 40.68 20 40 20 C40 20.66 40 21.32 40 22 C39.34 22 38.68 22 38 22 C37.505 23.485 37.505 23.485 37 25 C36.34 25 35.68 25 35 25 C35 25.66 35 26.32 35 27 C34.34 27 33.68 27 33 27 C32.34 28.32 31.68 29.64 31 31 C27.41529324 29.80509775 26.1347166 27.93364371 23.77929688 25.08544922 C20.47641242 21.21425836 16.84480128 17.6603843 13.25 14.0625 C12.48300781 13.28326172 11.71601563 12.50402344 10.92578125 11.70117188 C10.19230469 10.96576172 9.45882812 10.23035156 8.703125 9.47265625 C8.03958008 8.80500244 7.37603516 8.13734863 6.69238281 7.44946289 C5.11820457 5.78316881 5.11820457 5.78316881 3 6 C2.5875 5.525625 2.175 5.05125 1.75 4.5625 C-0.77457979 2.3084109 -2.64513051 2.19355016 -6 2 C-9.94134175 2.88340418 -13.47287383 4.02480935 -17 6 C-16 3 -16 3 -13.5625 1.3125 C-9.01159828 -0.364148 -4.7911363 -0.9275523 0 0 Z " fill="#2E8547" transform="translate(153,203)"/>
<path d="M0 0 C0.33 0 0.66 0 1 0 C1 13.53 1 27.06 1 41 C6.96284165 39.2111475 12.85868784 37.41991411 18.75 35.4375 C19.98234375 35.02371094 21.2146875 34.60992187 22.484375 34.18359375 C24.22460938 33.59771484 24.22460938 33.59771484 26 33 C27.11246094 32.65324219 28.22492188 32.30648437 29.37109375 31.94921875 C32.03474685 31.24416191 32.03474685 31.24416191 33.3125 29.375 C34.30736147 25.93820582 34.64394382 22.56056178 35 19 C35.33 19 35.66 19 36 19 C36 23.29 36 27.58 36 32 C28.60428138 35.03764946 21.14878988 37.72901752 13.5625 40.25 C12.48806641 40.61351562 11.41363281 40.97703125 10.30664062 41.3515625 C9.27861328 41.69445312 8.25058594 42.03734375 7.19140625 42.390625 C6.26529541 42.70032227 5.33918457 43.01001953 4.38500977 43.32910156 C2 44 2 44 -1 44 C-1.02517326 39.98389666 -1.04307755 35.96782537 -1.05493164 31.95166016 C-1.06229008 29.93260071 -1.07501162 27.91356303 -1.08789062 25.89453125 C-1.10929464 17.20450174 -0.74849894 8.65625944 0 0 Z " fill="#F4A110" transform="translate(225,47)"/>
<path d="M0 0 C0.33 0 0.66 0 1 0 C1 16.17 1 32.34 1 49 C-15.92716858 55.04541735 -15.92716858 55.04541735 -23.1875 57.375 C-24.00541016 57.64699219 -24.82332031 57.91898438 -25.66601562 58.19921875 C-26.45041016 58.45058594 -27.23480469 58.70195313 -28.04296875 58.9609375 C-28.73414795 59.18571777 -29.42532715 59.41049805 -30.13745117 59.64208984 C-32 60 -32 60 -35 59 C-34 57 -34 57 -30.39453125 55.78125 C-28.86941878 55.34626604 -27.34193167 54.91954485 -25.8125 54.5 C-24.29790069 54.07389789 -22.78357243 53.64683103 -21.26953125 53.21875 C-20.53041504 53.0125 -19.79129883 52.80625 -19.02978516 52.59375 C-17.38029345 52.11124292 -15.75365717 51.55111254 -14.13671875 50.96875 C-9.53610686 49.54788854 -4.73735937 48.86133807 0 48 C0 32.16 0 16.32 0 0 Z " fill="#F49910" transform="translate(153,66)"/>
<path d="M0 0 C0.99 0.33 1.98 0.66 3 1 C-9.66666667 13.66666667 -22.33333333 26.33333333 -35 39 C-35.99 38.67 -36.98 38.34 -38 38 C-33.05906227 33.00850533 -28.11042057 28.02474758 -23.15625 23.04638672 C-21.47052874 21.35058495 -19.78660376 19.65299566 -18.10449219 17.95361328 C-15.6915115 15.51647436 -13.27222179 13.08575933 -10.8515625 10.65625 C-9.71867294 9.50787659 -9.71867294 9.50787659 -8.56289673 8.33630371 C-7.86232147 7.63557739 -7.16174622 6.93485107 -6.43994141 6.21289062 C-5.82261139 5.59111938 -5.20528137 4.96934814 -4.56924438 4.32873535 C-3 3 -3 3 -1 3 C-0.67 2.01 -0.34 1.02 0 0 Z " fill="#308649" transform="translate(258,199)"/>
<path d="M0 0 C1.30195313 0.00322266 2.60390625 0.00644531 3.9453125 0.00976562 C5.32552149 0.01812159 6.70572982 0.02658654 8.0859375 0.03515625 C9.47395676 0.04017124 10.86197772 0.04473415 12.25 0.04882812 C15.65368882 0.06064649 19.05729189 0.07712191 22.4609375 0.09765625 C22.4609375 0.42765625 22.4609375 0.75765625 22.4609375 1.09765625 C17.25631838 1.72988764 12.14494085 2.15693877 6.8984375 2.09765625 C-1.63477518 1.59502261 -1.63477518 1.59502261 -9.26171875 4.453125 C-10.79893492 6.15328916 -10.79893492 6.15328916 -10.9765625 9.09765625 C-10.83804616 12.12161005 -10.83804616 12.12161005 -8.90527344 13.75317383 C-5.8814672 15.47130228 -3.7111416 15.52756004 -0.2421875 15.609375 C0.96308594 15.64482422 2.16835938 15.68027344 3.41015625 15.71679688 C4.66441406 15.73935547 5.91867187 15.76191406 7.2109375 15.78515625 C8.48066406 15.81931641 9.75039063 15.85347656 11.05859375 15.88867188 C14.19262024 15.97114626 17.32636705 16.04030109 20.4609375 16.09765625 C20.4609375 16.42765625 20.4609375 16.75765625 20.4609375 17.09765625 C16.42268684 17.22171632 12.38518112 17.3122067 8.34545898 17.37231445 C6.97286648 17.39738242 5.60040648 17.43144707 4.22827148 17.47485352 C2.25043054 17.53583156 0.27159566 17.56126634 -1.70703125 17.5859375 C-3.49016724 17.62521362 -3.49016724 17.62521362 -5.30932617 17.6652832 C-9.48675459 16.93109913 -10.93562363 15.37279499 -13.5390625 12.09765625 C-14.1640625 9.09765625 -14.1640625 9.09765625 -13.5390625 6.09765625 C-9.08858668 0.82735594 -6.72882235 -0.02925575 0 0 Z " fill="#2B7B40" transform="translate(277.5390625,213.90234375)"/>
<path d="M0 0 C0.33 0 0.66 0 1 0 C1 14.19 1 28.38 1 43 C-3.81930825 44.9277233 -6.22127556 45.23686193 -11.26953125 45.1953125 C-11.95053391 45.1924826 -12.63153656 45.18965271 -13.33317566 45.18673706 C-15.49313455 45.17560525 -17.65266794 45.15051457 -19.8125 45.125 C-21.28319711 45.11496111 -22.75390076 45.10583685 -24.22460938 45.09765625 C-27.81654286 45.07568913 -31.40822985 45.0412082 -35 45 C-35 44.67 -35 44.34 -35 44 C-31.52099567 43.82982885 -28.041776 43.66451529 -24.5625 43.5 C-23.58861328 43.45230469 -22.61472656 43.40460938 -21.61132812 43.35546875 C-15.73282211 43.08022098 -9.88489861 42.95131418 -4 43 C-3.67 42.01 -3.34 41.02 -3 40 C-2.01 40 -1.02 40 0 40 C0 26.8 0 13.6 0 0 Z " fill="#F8970D" transform="translate(97,90)"/>
<path d="M0 0 C-0.33 0.99 -0.66 1.98 -1 3 C-1.66 3 -2.32 3 -3 3 C-3.33 3.99 -3.66 4.98 -4 6 C-5.43017578 7.40454102 -5.43017578 7.40454102 -7.3203125 8.94140625 C-10.96931408 12.03597453 -14.38491382 15.30973415 -17.7421875 18.71484375 C-18.2409137 19.21923981 -18.73963989 19.72363586 -19.253479 20.24331665 C-21.32716638 22.34405284 -23.39653785 24.44895334 -25.46191406 26.55786133 C-26.98853669 28.11449651 -28.52117047 29.66500464 -30.0546875 31.21484375 C-31.40796143 32.59337524 -31.40796143 32.59337524 -32.78857422 33.99975586 C-35 36 -35 36 -37 36 C-35.67963073 33.03986241 -34.30040192 31.09618675 -31.90234375 28.92578125 C-31.27344238 28.34836182 -30.64454102 27.77094238 -29.99658203 27.17602539 C-29.31708496 26.56106201 -28.63758789 25.94609863 -27.9375 25.3125 C-20.88279115 18.83661824 -14.08575168 12.1500977 -7.40991211 5.28442383 C-6.73065674 4.59372803 -6.05140137 3.90303223 -5.3515625 3.19140625 C-4.75166504 2.57467041 -4.15176758 1.95793457 -3.53369141 1.32250977 C-2 0 -2 0 0 0 Z " fill="#3C934B" transform="translate(239,178)"/>
<path d="M0 0 C2.4789742 2.4789742 2.24593676 3.9235766 2.27789307 7.30783081 C2.2738446 8.02866852 2.26979614 8.74950623 2.265625 9.4921875 C2.26753845 10.23453644 2.2694519 10.97688538 2.27142334 11.74172974 C2.2727853 13.31366311 2.26908805 14.88560772 2.26074219 16.45751953 C2.25007262 18.85865748 2.26062104 21.25904211 2.2734375 23.66015625 C2.27211531 25.18750165 2.2695517 26.71484658 2.265625 28.2421875 C2.26967346 28.95897675 2.27372192 29.67576599 2.27789307 30.41427612 C2.24338133 34.10366845 2.03525555 36.86425126 0 40 C-1.12367611 35.59231424 -1.04360745 31.36228135 -0.87890625 26.85546875 C-0.85529526 26.08568192 -0.83168427 25.31589508 -0.80735779 24.52278137 C-0.73112309 22.07748095 -0.6469275 19.63252989 -0.5625 17.1875 C-0.50923899 15.52410532 -0.4564989 13.86069387 -0.40429688 12.19726562 C-0.2755628 8.13129151 -0.13969106 4.06561182 0 0 Z " fill="#327A45" transform="translate(300,231)"/>
<path d="M0 0 C0.99 0.33 1.98 0.66 3 1 C1.37660195 2.70884005 -0.29319053 4.37446717 -2 6 C-2.66 6 -3.32 6 -4 6 C-4 6.66 -4 7.32 -4 8 C-4.99 8.33 -5.98 8.66 -7 9 C-8.19356263 10.42564425 -9.38168589 11.85675272 -10.5234375 13.32421875 C-12.15075129 15.17109075 -13.91314666 16.51883981 -15.875 18 C-17.66571158 19.41267744 -17.66571158 19.41267744 -19 21 C-19.50653275 24.2119376 -19.50653275 24.2119376 -18 27 C-15.55690423 28.91744593 -15.55690423 28.91744593 -13 30 C-13.99 30.33 -14.98 30.66 -16 31 C-21.48775313 27.15857281 -21.48775313 27.15857281 -22.81054688 24.16674805 C-23 22 -23 22 -21.54052734 19.95703125 C-20.8130127 19.24933594 -20.08549805 18.54164062 -19.3359375 17.8125 C-18.54316406 17.03132813 -17.75039063 16.25015625 -16.93359375 15.4453125 C-16.08925781 14.63835937 -15.24492187 13.83140625 -14.375 13 C-13.55386719 12.19304687 -12.73273437 11.38609375 -11.88671875 10.5546875 C-3.73019516 2.59518139 -3.73019516 2.59518139 0 0 Z " fill="#439245" transform="translate(39,103)"/>
<path d="M0 0 C4.29 0.33 8.58 0.66 13 1 C13 1.33 13 1.66 13 2 C21.91 2.66 30.82 3.32 40 4 C40 4.33 40 4.66 40 5 C35.58339099 5.0589002 31.16688531 5.09389517 26.75 5.125 C25.51507813 5.14175781 24.28015625 5.15851563 23.0078125 5.17578125 C15.12541069 5.21726758 7.72360943 4.58804858 0 3 C0 2.01 0 1.02 0 0 Z " fill="#27754D" transform="translate(38,302)"/>
<path d="M0 0 C0 0.66 0 1.32 0 2 C-0.99 2.66 -1.98 3.32 -3 4 C3.27 4.66 9.54 5.32 16 6 C16 6.33 16 6.66 16 7 C15.03175293 6.99214478 15.03175293 6.99214478 14.04394531 6.98413086 C11.11264015 6.96331343 8.18135057 6.95032466 5.25 6.9375 C4.23421875 6.92912109 3.2184375 6.92074219 2.171875 6.91210938 C1.1921875 6.90888672 0.2125 6.90566406 -0.796875 6.90234375 C-1.69760742 6.89710693 -2.59833984 6.89187012 -3.52636719 6.88647461 C-5.97142506 6.91231984 -5.97142506 6.91231984 -8.15332031 7.56469727 C-10.85609897 8.20180122 -12.55580653 7.15420247 -15 6 C-13.54345589 3.08691178 -11.64612352 2.94547684 -8.625 1.875 C-7.64789063 1.52179688 -6.67078125 1.16859375 -5.6640625 0.8046875 C-3 0 -3 0 0 0 Z " fill="#429850" transform="translate(144,129)"/>
<path d="M0 0 C0.33 0 0.66 0 1 0 C2.78657866 21.85368537 2.78657866 21.85368537 1 29 C-4.94 29 -10.88 29 -17 29 C-17 28.67 -17 28.34 -17 28 C-16.25234375 27.93941406 -15.5046875 27.87882812 -14.734375 27.81640625 C-13.25710937 27.69072266 -13.25710937 27.69072266 -11.75 27.5625 C-10.77546875 27.48128906 -9.8009375 27.40007812 -8.796875 27.31640625 C-6.43538247 27.04925416 -4.28098935 26.64628032 -2 26 C-1.25484101 22.61363691 -0.83229437 19.38056897 -0.68359375 15.91796875 C-0.64169922 14.98662109 -0.59980469 14.05527344 -0.55664062 13.09570312 C-0.51732422 12.13599609 -0.47800781 11.17628906 -0.4375 10.1875 C-0.39431641 9.20845703 -0.35113281 8.22941406 -0.30664062 7.22070312 C-0.2009774 4.81392973 -0.09887673 2.40706017 0 0 Z " fill="#3C924A" transform="translate(44,106)"/>
<path d="M0 0 C9.9 0 19.8 0 30 0 C30.33 0.66 30.66 1.32 31 2 C30.34 2 29.68 2 29 2 C29 9.92 29 17.84 29 26 C28.67 26 28.34 26 28 26 C26.89062261 20.67149444 26.8849443 15.53591207 26.9375 10.125 C26.958125 7.11375 26.97875 4.1025 27 1 C18.09 1 9.18 1 0 1 C0 0.67 0 0.34 0 0 Z " fill="#3E9659" transform="translate(271,229)"/>
<path d="M0 0 C0.99 0.33 1.98 0.66 3 1 C0.77408672 3.22591328 -1.45202887 5.45161425 -3.6796875 7.67578125 C-4.9819925 8.98027868 -6.2814186 10.28771901 -7.5703125 11.60546875 C-9.90057718 13.98702856 -12.27345987 16.08132361 -15 18 C-15 15 -15 15 -12.4453125 12.08203125 C-11.34630754 10.98435681 -10.23915907 9.89478953 -9.125 8.8125 C-8.29162109 7.97428711 -8.29162109 7.97428711 -7.44140625 7.11914062 C-3.26694139 3 -3.26694139 3 -1 3 C-0.67 2.01 -0.34 1.02 0 0 Z " fill="#3A914C" transform="translate(258,199)"/>
<path d="M0 0 C0.4125 0.37511719 0.825 0.75023437 1.25 1.13671875 C7.59110205 6.75595427 14.12380481 10.8823394 22 14 C22 14.33 22 14.66 22 15 C14.18817921 14.66758209 8.5669726 10.60595083 3 5.3125 C1 3 1 3 0 0 Z " fill="#1F6841" transform="translate(18,289)"/>
<path d="M0 0 C0.33 0 0.66 0 1 0 C1 10.89 1 21.78 1 33 C2.32 33.66 3.64 34.32 5 35 C3.35 35.66 1.7 36.32 0 37 C0 24.79 0 12.58 0 0 Z " fill="#EAAE1B" transform="translate(113,92)"/>
<path d="M0 0 C0.33 0 0.66 0 1 0 C1.05819424 3.24992446 1.09366116 6.49971435 1.125 9.75 C1.14175781 10.67039062 1.15851563 11.59078125 1.17578125 12.5390625 C1.18222656 13.42851562 1.18867188 14.31796875 1.1953125 15.234375 C1.20578613 16.05131836 1.21625977 16.86826172 1.22705078 17.70996094 C0.97829916 20.21887518 0.25700129 21.83395625 -1 24 C-2.32286246 19.03926578 -2.08893197 14.08888488 -2 9 C-1.67 9 -1.34 9 -1 9 C-0.67 6.03 -0.34 3.06 0 0 Z " fill="#458550" transform="translate(301,247)"/>
<path d="M0 0 C2.3046875 1.5234375 2.3046875 1.5234375 4 3 C2 4 2 4 -1.6875 2.9375 C-7.36023044 1.40349485 -11.98210088 3.18997649 -17 6 C-16 3 -16 3 -13.5625 1.3125 C-9.02952098 -0.3575449 -4.78453491 -0.80531776 0 0 Z " fill="#3A924C" transform="translate(153,203)"/>
<path d="M0 0 C3.90285767 1.58667578 6.33520982 4.13350481 9.25 7.125 C10.14203125 8.03507813 11.0340625 8.94515625 11.953125 9.8828125 C12.62859375 10.58148438 13.3040625 11.28015625 14 12 C13.34 12.66 12.68 13.32 12 14 C9.99387601 12.04761147 7.99507567 10.08862178 6 8.125 C5.42765625 7.56941406 4.8553125 7.01382813 4.265625 6.44140625 C2.80549218 4.99865596 1.39850702 3.5025626 0 2 C0 1.34 0 0.68 0 0 Z " fill="#287D47" transform="translate(152,246)"/>
<path d="M0 0 C0.49628906 0.38671875 0.99257812 0.7734375 1.50390625 1.171875 C5.84883147 4.50270951 10.18629161 7.39257462 15 10 C13.359375 10.69921875 13.359375 10.69921875 11 11 C8.203125 9.70703125 8.203125 9.70703125 5.25 7.8125 C4.26515625 7.20019531 3.2803125 6.58789062 2.265625 5.95703125 C1.51796875 5.31121094 0.7703125 4.66539062 0 4 C0 2.68 0 1.36 0 0 Z " fill="#479B4D" transform="translate(10,134)"/>
<path d="M0 0 C4.84824868 0.41556417 6.88036862 2.37448245 10 6 C12.46952775 9.52789679 12.16209613 12.78550064 12 17 C11.67 17 11.34 17 11 17 C10.731875 15.948125 10.46375 14.89625 10.1875 13.8125 C8.13727288 7.23019189 5.85242822 4.64151089 0 1 C0 0.67 0 0.34 0 0 Z " fill="#3D9146" transform="translate(253,174)"/>
<path d="M0 0 C3.47775179 1.51553404 5.9557984 3.5773456 8.75 6.125 C9.94882813 7.21167969 9.94882813 7.21167969 11.171875 8.3203125 C11.77515625 8.87460938 12.3784375 9.42890625 13 10 C12.34 10.66 11.68 11.32 11 12 C10.06027344 11.02546875 10.06027344 11.02546875 9.1015625 10.03125 C8.28429687 9.1959375 7.46703125 8.360625 6.625 7.5 C5.81289062 6.6646875 5.00078125 5.829375 4.1640625 4.96875 C2.2410341 2.77568714 2.2410341 2.77568714 0 3 C0 2.01 0 1.02 0 0 Z " fill="#328A47" transform="translate(156,206)"/>
<path d="M0 0 C0.66 0.33 1.32 0.66 2 1 C2.103125 1.94875 2.20625 2.8975 2.3125 3.875 C2.68332557 7.20193151 2.68332557 7.20193151 5.5625 8.875 C6.366875 9.24625 7.17125 9.6175 8 10 C7.01 10.33 6.02 10.66 5 11 C-0.46218487 7.17647059 -0.46218487 7.17647059 -2 3.8125 C-2 2 -2 2 0 0 Z " fill="#388C47" transform="translate(18,123)"/>
<path d="M0 0 C0.33 0.99 0.66 1.98 1 3 C-0.4375 5 -0.4375 5 -3 7 C-6.02824418 7.35442445 -8.96485939 7.23347235 -12 7 C-12 6.67 -12 6.34 -12 6 C-10.7625 5.7525 -9.525 5.505 -8.25 5.25 C-4.48560327 4.3289242 -2.46922107 3.08652634 0 0 Z " fill="#29804D" transform="translate(192,265)"/>
<path d="M0 0 C0.66 0.66 1.32 1.32 2 2 C1.7578125 4.3828125 1.7578125 4.3828125 1.125 7.125 C0.92132813 8.03507812 0.71765625 8.94515625 0.5078125 9.8828125 C0.34023438 10.58148438 0.17265625 11.28015625 0 12 C-1.36398513 9.75700222 -2.05762059 8.50929167 -1.7578125 5.859375 C-1.171875 3.90625 -0.5859375 1.953125 0 0 Z " fill="#2B7B4D" transform="translate(299,269)"/>
<path d="M0 0 C3.96 0 7.92 0 12 0 C11.67 0.66 11.34 1.32 11 2 C5.40508021 3.17312834 5.40508021 3.17312834 3 3 C2.01 2.01 1.02 1.02 0 0 Z " fill="#3C9B5F" transform="translate(272,231)"/>
<path d="M0 0 C0.33 0.66 0.66 1.32 1 2 C0.34 1.67 -0.32 1.34 -1 1 C-0.67 0.67 -0.34 0.34 0 0 Z M-2 2 C-2 5 -2 5 -4.5 7.6875 C-5.325 8.450625 -6.15 9.21375 -7 10 C-7 7 -7 7 -4.5 4.3125 C-3.675 3.549375 -2.85 2.78625 -2 2 Z " fill="#38995D" transform="translate(221,239)"/>
<path d="M0 0 C-2.5654594 2.5654594 -4.47686668 2.54046087 -8 3 C-8 2.01 -8 1.02 -8 0 C-4.94736336 -0.98120464 -3.05263664 -0.98120464 0 0 Z " fill="#3F934C" transform="translate(138,133)"/>
<path d="M0 0 C4 1 4 1 4 1 Z " fill="#60B964" transform="translate(250,176)"/>
<path d="M0 0 C0.66 0.33 1.32 0.66 2 1 C1.01 1 0.02 1 -1 1 C-0.67 0.67 -0.34 0.34 0 0 Z " fill="#8EA94A" transform="translate(131,130)"/>
<path d="M0 0 C1.485 0.99 1.485 0.99 3 2 C2.01 2 1.02 2 0 2 C0 1.34 0 0.68 0 0 Z " fill="#F9CC1D" transform="translate(180,37)"/>
<path d="" fill="#A1B945" transform="translate(0,0)"/>
<path d="M0 0 C3 1 3 1 3 1 Z " fill="#CCB12B" transform="translate(183,105)"/>
<path d="" fill="#3F8D5F" transform="translate(0,0)"/>
<path d="" fill="#40905C" transform="translate(0,0)"/>
<path d="" fill="#60B861" transform="translate(0,0)"/>
<path d="M0 0 C2 1 2 1 2 1 Z " fill="#B9BD3D" transform="translate(74,137)"/>
<path d="" fill="#BDB137" transform="translate(0,0)"/>
<path d="" fill="#BEAE35" transform="translate(0,0)"/>
<path d="M0 0 C2 1 2 1 2 1 Z " fill="#99AE46" transform="translate(243,93)"/>
<path d="M0 0 C2 1 2 1 2 1 Z " fill="#F6C71F" transform="translate(79,82)"/>
<path d="M0 0 C2 1 2 1 2 1 Z " fill="#FACB1D" transform="translate(206,38)"/>
<path d="" fill="#36835E" transform="translate(0,0)"/>
<path d="" fill="#3B895E" transform="translate(0,0)"/>
<path d="" fill="#3C875D" transform="translate(0,0)"/>
<path d="" fill="#3B8B62" transform="translate(0,0)"/>
<path d="" fill="#3E8C5C" transform="translate(0,0)"/>
<path d="" fill="#658558" transform="translate(0,0)"/>
<path d="" fill="#3E8D5E" transform="translate(0,0)"/>
<path d="" fill="#3B9760" transform="translate(0,0)"/>
<path d="" fill="#3D9760" transform="translate(0,0)"/>
<path d="" fill="#3D9A5F" transform="translate(0,0)"/>
<path d="" fill="#729555" transform="translate(0,0)"/>
<path d="" fill="#429F5E" transform="translate(0,0)"/>
<path d="" fill="#429E5E" transform="translate(0,0)"/>
<path d="" fill="#6C9857" transform="translate(0,0)"/>
<path d="" fill="#5D9C59" transform="translate(0,0)"/>
<path d="" fill="#619D57" transform="translate(0,0)"/>
<path d="" fill="#48A65F" transform="translate(0,0)"/>
<path d="" fill="#47A45E" transform="translate(0,0)"/>
<path d="" fill="#4DAA63" transform="translate(0,0)"/>
<path d="" fill="#4DA35C" transform="translate(0,0)"/>
<path d="" fill="#54AA5F" transform="translate(0,0)"/>
<path d="" fill="#51AD60" transform="translate(0,0)"/>
<path d="" fill="#53B161" transform="translate(0,0)"/>
<path d="" fill="#52B063" transform="translate(0,0)"/>
<path d="" fill="#53AE60" transform="translate(0,0)"/>
<path d="" fill="#5BB664" transform="translate(0,0)"/>
<path d="" fill="#5CB562" transform="translate(0,0)"/>
<path d="" fill="#60B762" transform="translate(0,0)"/>
<path d="" fill="#60B964" transform="translate(0,0)"/>
<path d="" fill="#5EB764" transform="translate(0,0)"/>
<path d="" fill="#60B861" transform="translate(0,0)"/>
<path d="" fill="#62BA66" transform="translate(0,0)"/>
<path d="" fill="#5FB962" transform="translate(0,0)"/>
<path d="" fill="#63AD5F" transform="translate(0,0)"/>
<path d="" fill="#5DB05E" transform="translate(0,0)"/>
<path d="" fill="#5FB866" transform="translate(0,0)"/>
<path d="" fill="#77B95D" transform="translate(0,0)"/>
<path d="" fill="#66B65C" transform="translate(0,0)"/>
<path d="" fill="#57AF65" transform="translate(0,0)"/>
<path d="" fill="#5AB063" transform="translate(0,0)"/>
<path d="" fill="#75B159" transform="translate(0,0)"/>
<path d="" fill="#B7B63D" transform="translate(0,0)"/>
<path d="" fill="#B7B93E" transform="translate(0,0)"/>
<path d="" fill="#B8BB3C" transform="translate(0,0)"/>
<path d="" fill="#79B758" transform="translate(0,0)"/>
<path d="" fill="#66AF5D" transform="translate(0,0)"/>
<path d="" fill="#52A85E" transform="translate(0,0)"/>
<path d="" fill="#8CA94E" transform="translate(0,0)"/>
<path d="" fill="#6BAA5C" transform="translate(0,0)"/>
<path d="" fill="#70AB5C" transform="translate(0,0)"/>
<path d="" fill="#C8B12F" transform="translate(0,0)"/>
<path d="" fill="#8DAE4D" transform="translate(0,0)"/>
<path d="" fill="#A4AE44" transform="translate(0,0)"/>
<path d="" fill="#79B155" transform="translate(0,0)"/>
<path d="" fill="#A0AF43" transform="translate(0,0)"/>
<path d="" fill="#91AD49" transform="translate(0,0)"/>
<path d="" fill="#B5B13C" transform="translate(0,0)"/>
<path d="" fill="#84B251" transform="translate(0,0)"/>
<path d="" fill="#8BB351" transform="translate(0,0)"/>
<path d="" fill="#91B451" transform="translate(0,0)"/>
<path d="" fill="#ECB622" transform="translate(0,0)"/>
<path d="" fill="#C6B02F" transform="translate(0,0)"/>
<path d="" fill="#99AC47" transform="translate(0,0)"/>
<path d="" fill="#EEB720" transform="translate(0,0)"/>
<path d="" fill="#C1B334" transform="translate(0,0)"/>
<path d="" fill="#9AA843" transform="translate(0,0)"/>
<path d="" fill="#C4AD29" transform="translate(0,0)"/>
<path d="" fill="#F5B91C" transform="translate(0,0)"/>
<path d="" fill="#F5BC1D" transform="translate(0,0)"/>
<path d="" fill="#8BAE49" transform="translate(0,0)"/>
<path d="" fill="#D1B528" transform="translate(0,0)"/>
<path d="" fill="#F8BF1B" transform="translate(0,0)"/>
<path d="" fill="#F6C71E" transform="translate(0,0)"/>
<path d="" fill="#F5C620" transform="translate(0,0)"/>
<path d="" fill="#F7C821" transform="translate(0,0)"/>
<path d="" fill="#F5C91F" transform="translate(0,0)"/>
<path d="" fill="#D0B92B" transform="translate(0,0)"/>
<path d="" fill="#F8C81B" transform="translate(0,0)"/>
<path d="" fill="#FAC519" transform="translate(0,0)"/>
<path d="" fill="#D4B82E" transform="translate(0,0)"/>
<path d="" fill="#FAC21C" transform="translate(0,0)"/>
<path d="" fill="#FCC91A" transform="translate(0,0)"/>
<path d="" fill="#FBCE1F" transform="translate(0,0)"/>
<path d="" fill="#F1CC28" transform="translate(0,0)"/>
<path d="" fill="#F3C821" transform="translate(0,0)"/>
<path d="" fill="#FBCC1D" transform="translate(0,0)"/>
<path d="" fill="#FBCD1E" transform="translate(0,0)"/>
<path d="" fill="#FCCD1D" transform="translate(0,0)"/>
<path d="" fill="#FDCB1C" transform="translate(0,0)"/>
<path d="" fill="#FACD1C" transform="translate(0,0)"/>
<path d="" fill="#F2C624" transform="translate(0,0)"/>
  </g>
</svg>
